<!DOCTYPE svg PUBLIC "-//W3C//DTD SVG 1.1//EN" "http://www.w3.org/Graphics/SVG/1.1/DTD/svg11.dtd">

<!-- Uploaded to: SVG Repo, www.svgrepo.com, Transformed by: SVG Repo Mixer Tools -->
<svg width="800px" height="800px" viewBox="0 0 48 48" fill="none" xmlns="http://www.w3.org/2000/svg">

<g id="SVGRepo_bgCarrier" stroke-width="0"/>

<g id="SVGRepo_tracerCarrier" stroke-linecap="round" stroke-linejoin="round"/>

<g id="SVGRepo_iconCarrier"> <path d="M14 29C14 29 11 24 11 18H27C27 18 27 13.5 30 10C33 6.5 36 5 36 5L44 13.5V18.5L36 16C32 21 34 29 34 29H14Z" fill="#ff9999" stroke="#7e2020" stroke-width="4" stroke-linecap="round" stroke-linejoin="round"/> <path d="M30 29L35 41" stroke="#7e2020" stroke-width="4" stroke-linecap="round" stroke-linejoin="round"/> <path d="M18 29L13 41" stroke="#7e2020" stroke-width="4" stroke-linecap="round" stroke-linejoin="round"/> <path d="M4 37C4 37 10 43 24 43C38 43 44 37 44 37" stroke="#7e2020" stroke-width="4" stroke-linecap="round" stroke-linejoin="round"/> <path d="M11 18C11 15 9 12 4 12" stroke="#7e2020" stroke-width="4" stroke-linecap="round" stroke-linejoin="round"/> </g>

</svg>